<?xml version="1.0" encoding="utf-8"?>
<!-- Generator: Adobe Illustrator 25.0.0, SVG Export Plug-In . SVG Version: 6.00 Build 0)  -->
<svg version="1.1" id="Layer_1" xmlns="http://www.w3.org/2000/svg" xmlns:xlink="http://www.w3.org/1999/xlink" x="0px" y="0px"
	 viewBox="0 0 32 32" style="enable-background:new 0 0 32 32;" xml:space="preserve">
<style type="text/css">
	.st0{fill:#FFFFFF;}
</style>
<g id="Layer_x0020_1">
	<g id="_1421344023328">
		<path class="st0" d="M21.59,14.28c0.25-1.66-1.01-2.55-2.74-3.14l0.56-2.25l-1.37-0.34l-0.55,2.19c-0.36-0.09-0.73-0.17-1.1-0.26
			l0.55-2.2l-1.37-0.34l-0.56,2.25c-0.3-0.07-0.59-0.13-0.87-0.21V9.97L12.25,9.5l-0.36,1.46c0,0,1.01,0.23,0.99,0.25
			c0.55,0.14,0.65,0.5,0.64,0.8l-0.64,2.56c0.04,0.01,0.09,0.02,0.14,0.05c-0.05-0.01-0.09-0.02-0.14-0.04L12,18.15
			c-0.07,0.17-0.24,0.42-0.63,0.32c0.01,0.02-0.99-0.25-0.99-0.25L9.7,19.79l1.78,0.44c0.33,0.08,0.66,0.17,0.98,0.25l-0.57,2.27
			l1.37,0.34l0.56-2.25c0.37,0.1,0.74,0.19,1.09,0.28l-0.56,2.24l1.37,0.34l0.57-2.27c2.33,0.44,4.09,0.26,4.82-1.85
			c0.59-1.7-0.03-2.68-1.26-3.32C20.74,16.08,21.41,15.49,21.59,14.28L21.59,14.28L21.59,14.28z M18.47,18.66
			c-0.42,1.7-3.28,0.78-4.21,0.55l0.75-3.01C15.94,16.43,18.91,16.89,18.47,18.66L18.47,18.66z M18.89,14.25
			c-0.39,1.54-2.77,0.76-3.54,0.57l0.68-2.73C16.81,12.28,19.29,12.64,18.89,14.25L18.89,14.25z"/>
	</g>
</g>
<g>
	<path class="st0" d="M16.66,0.26c0.03,0.01,0.07,0.02,0.12,0.02c1.4,0.06,2.81,0.33,4.19,0.78c1.64,0.54,3.17,1.35,4.54,2.4
		c1.87,1.43,3.36,3.19,4.43,5.25c0.97,1.86,1.55,3.84,1.72,5.9l0.04,0.47l0.02,0.21v1.41c-0.01,0.04-0.02,0.08-0.02,0.12
		c-0.01,0.15-0.03,0.29-0.04,0.44c-0.02,0.3-0.05,0.6-0.09,0.89c-0.16,1.15-0.45,2.27-0.84,3.32c-0.74,1.98-1.85,3.77-3.3,5.31
		c-1.21,1.28-2.61,2.34-4.15,3.15c-1.72,0.9-3.57,1.47-5.49,1.69c-0.24,0.03-0.48,0.05-0.72,0.07l-0.31,0.03h-1.42
		c-0.03-0.01-0.07-0.02-0.12-0.02c-1.25-0.05-2.52-0.26-3.75-0.64c-2.27-0.69-4.31-1.84-6.05-3.42c-1.65-1.5-2.94-3.29-3.83-5.32
		c-0.7-1.6-1.13-3.28-1.27-5c-0.01-0.16-0.03-0.31-0.04-0.47L0.26,16.7v-1.44c0.01-0.04,0.02-0.09,0.02-0.13
		c0.08-1.41,0.35-2.79,0.79-4.11c0.7-2.08,1.8-3.96,3.28-5.59c1.49-1.64,3.27-2.93,5.3-3.82c1.66-0.73,3.43-1.17,5.25-1.29
		c0.1-0.02,0.18-0.03,0.26-0.04l0.07-0.01h1.43 M16.7,0c-0.49,0-0.97,0-1.46,0c-0.11,0.01-0.23,0.03-0.34,0.04
		c-1.86,0.13-3.64,0.57-5.34,1.32c-2.08,0.91-3.88,2.21-5.4,3.88C2.65,6.9,1.54,8.79,0.83,10.93c-0.45,1.36-0.72,2.75-0.8,4.18
		c0,0.04-0.02,0.09-0.02,0.13c0,0.49,0,0.97,0,1.46c0.02,0.22,0.04,0.45,0.06,0.67c0.15,1.77,0.58,3.46,1.29,5.08
		c0.92,2.08,2.22,3.88,3.9,5.4c1.79,1.62,3.84,2.78,6.15,3.48c1.24,0.38,2.52,0.6,3.82,0.65c0.03,0,0.05,0.02,0.08,0.02
		c0.49,0,0.97,0,1.46,0c0.36-0.04,0.71-0.07,1.07-0.11c1.97-0.23,3.83-0.8,5.58-1.72c1.59-0.83,2.99-1.9,4.22-3.2
		c1.48-1.57,2.6-3.37,3.36-5.39c0.41-1.09,0.69-2.22,0.85-3.37c0.06-0.45,0.09-0.9,0.13-1.35c0-0.04,0.02-0.09,0.02-0.13
		c0-0.48,0-0.95,0-1.43c-0.02-0.23-0.05-0.47-0.07-0.7c-0.18-2.12-0.77-4.12-1.75-6c-1.1-2.12-2.61-3.89-4.51-5.34
		c-1.4-1.07-2.94-1.88-4.62-2.44c-1.39-0.46-2.81-0.73-4.26-0.8C16.76,0.02,16.73,0.01,16.7,0L16.7,0z"/>
</g>
</svg>
