<?xml version="1.0" encoding="utf-8"?>
<!-- Generator: Adobe Illustrator 25.0.0, SVG Export Plug-In . SVG Version: 6.00 Build 0)  -->
<svg version="1.1" id="Layer_1" xmlns="http://www.w3.org/2000/svg" xmlns:xlink="http://www.w3.org/1999/xlink" x="0px" y="0px"
	 viewBox="0 0 45 45" style="enable-background:new 0 0 45 45;" xml:space="preserve">
<style type="text/css">
	.st0{fill:#394E6B;}
	.st1{fill:#4FA4F7;}
	.st2{fill:#231F20;}
	.st3{fill:#FFFFFF;}
	.st4{fill-rule:evenodd;clip-rule:evenodd;fill:#FFFFFF;}
	.st5{fill:url(#SVGID_1_);}
	.st6{fill:url(#SVGID_2_);}
	.st7{fill:url(#SVGID_3_);}
	.st8{fill:url(#SVGID_4_);}
	.st9{fill:url(#SVGID_5_);}
	.st10{fill:url(#SVGID_6_);}
	.st11{fill:url(#SVGID_7_);}
	.st12{fill:url(#SVGID_8_);}
</style>
<linearGradient id="SVGID_1_" gradientUnits="userSpaceOnUse" x1="9.9932" y1="22.5" x2="35.0068" y2="22.5">
	<stop  offset="0" style="stop-color:#A844E2"/>
	<stop  offset="0.2894" style="stop-color:#8243E3"/>
	<stop  offset="0.5788" style="stop-color:#6442E4"/>
	<stop  offset="0.8257" style="stop-color:#5241E5"/>
	<stop  offset="1" style="stop-color:#4B41E5"/>
</linearGradient>
<path class="st5" d="M13.09,14.17c-0.35-0.08-0.65-0.13-0.94-0.23c-1.48-0.49-2.34-1.94-2.1-3.52c0.21-1.42,1.5-2.56,2.99-2.61
	c0.62-0.02,1.24,0,1.96,0c0-0.34,0-0.65,0-0.96c0.03-1.81,1.38-3.19,3.12-3.2c1.71-0.02,3.07,1.32,3.16,3.11
	c0.02,0.33,0,0.67,0,1.02c0.38,0,0.69,0,1.07,0c0-0.38-0.01-0.74,0-1.09c0.06-1.67,1.37-2.98,3.05-3.04
	c1.63-0.06,3.07,1.21,3.21,2.87c0.06,0.73,0.01,1.47,0.05,2.2c0.01,0.21,0.12,0.49,0.28,0.6c3.63,2.49,4.85,7.42,2.68,11.34
	c-0.03,0.05-0.04,0.1-0.07,0.18c1.28,1.07,2.25,2.36,2.84,3.93c1.77,4.7-0.55,9.95-5.24,11.77c-0.41,0.16-0.57,0.35-0.53,0.78
	c0.03,0.34,0.01,0.68-0.01,1.02c-0.12,1.75-1.5,3.06-3.18,3.03c-1.73-0.04-3.06-1.4-3.1-3.17c-0.01-0.3,0-0.6,0-0.94
	c-0.34,0-0.65,0-1.03,0c-0.02,0.39-0.02,0.79-0.05,1.19c-0.13,1.61-1.37,2.82-3,2.92c-1.48,0.09-2.9-0.99-3.2-2.49
	c-0.1-0.51-0.07-1.05-0.11-1.67c-0.62,0-1.25,0.03-1.88-0.01c-1.27-0.07-2.24-0.67-2.77-1.83c-0.52-1.13-0.39-2.25,0.36-3.25
	c0.59-0.78,1.42-1.15,2.43-1.25c0-0.32-0.02-1.2,0-1.5c0.03-0.49,0.38-0.81,0.84-0.82c0.46,0,0.83,0.32,0.85,0.81
	c0.03,0.6,0.02,1.79,0,2.39c-0.02,0.53-0.33,0.82-0.86,0.85c-0.24,0.02-0.49,0-0.73,0.01c-0.87,0.05-1.45,0.62-1.46,1.42
	c-0.01,0.82,0.57,1.42,1.48,1.46c0.77,0.03,1.55,0.01,2.32,0.01c0.92,0,1.18,0.26,1.19,1.17c0,0.51-0.01,1.02,0,1.53
	c0.03,0.84,0.62,1.44,1.42,1.44c0.81,0,1.39-0.58,1.42-1.44c0.02-0.57,0-1.13,0.01-1.7c0.02-0.69,0.32-0.99,1.02-1
	c0.83-0.01,1.66-0.01,2.49,0c0.69,0.01,0.98,0.32,0.99,1.02c0.01,0.57-0.01,1.13,0.01,1.7c0.03,0.84,0.64,1.43,1.44,1.42
	c0.79-0.01,1.36-0.58,1.4-1.41c0.02-0.58,0.01-1.17,0.01-1.75c0-0.85,0.16-1.04,0.96-1.29c2.85-0.9,4.68-2.8,5.24-5.73
	c0.58-3.03-0.45-5.53-2.88-7.42c-0.87-0.67-0.93-0.88-0.34-1.8c2.08-3.25,1.12-7.57-2.17-9.6c-0.59-0.36-0.85-0.78-0.81-1.46
	c0.04-0.75,0.02-1.51,0.01-2.26c-0.02-0.91-0.59-1.5-1.42-1.5c-0.82,0-1.41,0.61-1.43,1.5c-0.01,0.57,0.01,1.13-0.01,1.7
	c-0.02,0.62-0.32,0.93-0.95,0.94c-0.87,0.01-1.73,0.02-2.6,0c-0.62-0.01-0.92-0.32-0.94-0.96c-0.02-0.58,0.01-1.17-0.01-1.75
	c-0.03-0.85-0.62-1.43-1.44-1.42c-0.8,0.01-1.39,0.61-1.41,1.46c-0.01,0.57,0.01,1.13-0.01,1.7C16.7,9.19,16.4,9.5,15.74,9.51
	c-0.79,0.01-1.58,0-2.38,0.01c-1,0.01-1.62,0.56-1.63,1.42c-0.01,0.88,0.62,1.44,1.65,1.46c0.13,0,0.26,0,0.4,0
	c0.73,0.02,1.02,0.3,1.02,1.04c0,2.32,0,4.64,0,6.96c0,2.02,0,0.85,0,2.86c0,0.57-0.34,0.92-0.85,0.93c-0.5,0-0.83-0.35-0.86-0.91
	c-0.01-0.15,0-0.3,0-0.45c0-3.73,0-4.28,0-8.01C13.09,14.61,13.09,14.4,13.09,14.17z M25.56,32.59c0.38,0,0.76,0,1.12-0.08
	c2.34-0.46,3.91-2.55,3.71-4.94c-0.18-2.27-2.12-4.11-4.46-4.15c-2.41-0.04-4.82-0.02-7.23-0.01c-0.72,0-1.03,0.31-1.04,1.04
	c-0.01,2.35-0.01,4.71,0,7.06c0,0.8,0.29,1.07,1.11,1.07c1.22,0.01,2.45,0,3.67,0C23.49,32.6,24.53,32.6,25.56,32.59z M19.43,25.19
	c0.14-0.02,0.27-0.06,0.39-0.06c1.96,0,3.92-0.01,5.88,0c1.26,0.01,2.23,0.56,2.75,1.73c0.49,1.1,0.3,2.14-0.48,3.06
	c-0.47,0.55-1.09,0.92-1.81,0.93c-2.22,0.04-4.44,0.01-6.73,0.01C19.43,28.94,19.43,27.08,19.43,25.19z M17.67,19.45
	c0.01,0.82,0.31,1.11,1.14,1.12c1.7,0,3.39,0.01,5.09-0.01c0.41,0,0.83-0.06,1.23-0.16c1.92-0.52,3.22-2.42,2.99-4.32
	c-0.26-2.09-1.87-3.61-3.94-3.66c-1.79-0.04-3.58-0.02-5.37-0.01c-0.87,0-1.13,0.27-1.14,1.16c-0.01,0.96,0,1.92,0,2.88
	C17.67,17.45,17.66,18.45,17.67,19.45z M24.34,14.15c1.15,0.04,2.06,1.12,2.08,2.29c0.02,1.14-0.83,2.25-1.97,2.32
	c-1.65,0.09-3.3,0.02-5,0.02c0-1.53,0-3.06,0-4.65C21.11,14.13,22.72,14.09,24.34,14.15z M13.95,25.67c-0.47,0-0.85,0.38-0.85,0.85
	s0.38,0.85,0.85,0.85c0.47,0,0.85-0.38,0.85-0.85S14.42,25.67,13.95,25.67z"/>
</svg>
