<?xml version="1.0" encoding="utf-8"?>
<!-- Generator: Adobe Illustrator 25.0.0, SVG Export Plug-In . SVG Version: 6.00 Build 0)  -->
<svg version="1.1" id="Layer_1" xmlns="http://www.w3.org/2000/svg" xmlns:xlink="http://www.w3.org/1999/xlink" x="0px" y="0px"
	 viewBox="0 0 30 30" style="enable-background:new 0 0 30 30;" xml:space="preserve">
<style type="text/css">
	.st0{fill:#394E6B;}
	.st1{fill:#4FA4F7;}
	.st2{fill:#231F20;}
	.st3{fill:#FFFFFF;}
	.st4{fill-rule:evenodd;clip-rule:evenodd;fill:#FFFFFF;}
	.st5{fill:url(#SVGID_1_);}
	.st6{fill:url(#SVGID_2_);}
	.st7{fill:url(#SVGID_3_);}
	.st8{fill:url(#SVGID_4_);}
	.st9{fill:url(#SVGID_5_);}
	.st10{fill:url(#SVGID_6_);}
	.st11{fill:url(#SVGID_7_);}
	.st12{fill:url(#SVGID_8_);}
</style>
<g>
	<path class="st2" d="M7.4,21.84c1.4,0.68,1.23,0.67,7.63,0.67c5.27,0,5.78-0.01,6.33-0.17c3.47-0.98,5.35-4.69,4.05-7.93
		c-0.25-0.61-1.92-3.53-1.99-3.47c-0.03,0.02,0.3,0.61,0.7,1.31c1.01,1.72,1.19,2.12,1.41,2.95c0.6,2.32-0.4,4.85-2.44,6.21
		c-1.21,0.8-1.52,0.88-4.03,0.92l-2.17,0.03l0.81-0.28c1.45-0.5,2.36-1.05,3.42-2.1c1.13-1.11,1.96-2.56,2.4-4.18
		c0.27-0.98,0.29-2.89,0.04-3.94c-0.09-0.41-0.18-0.84-0.19-0.97c-0.02-0.21-2.95-5.36-3.57-6.25c-0.66-0.95-2.15-1.96-3.32-2.24
		c-2.31-0.55-4.79,0.31-6.15,2.13C9.8,5.22,8.28,7.83,8.34,7.91C8.37,7.92,8.79,7.23,9.3,6.35c0.72-1.25,1.05-1.74,1.56-2.26
		c1.14-1.16,2.45-1.71,4.07-1.72c1.62-0.01,2.89,0.49,4.05,1.58c0.61,0.57,0.95,1.09,2.33,3.48l0.27,0.46l-0.65-0.56
		c-1.54-1.36-3.1-2.05-5.02-2.25c-2.59-0.27-5.05,0.55-6.85,2.27C8.67,7.73,8.33,8.01,8.3,7.98c-0.09-0.08-1.66,2.73-1.59,2.84
		c0.04,0.06,0.03,0.08-0.03,0.06c-0.12-0.07-1.98,3.11-2.19,3.74c-0.38,1.15-0.42,2.52-0.09,3.61C4.84,19.69,6.09,21.21,7.4,21.84z
		 M7.39,12.53c0.55-3.15,2.89-5.61,6.02-6.31c0.71-0.16,2.37-0.16,3.13,0.01c2.94,0.62,5.18,2.77,5.94,5.73
		c0.27,1.03,0.27,2.59,0,3.61c-0.69,2.71-2.77,4.86-5.41,5.61c-0.98,0.28-3.08,0.3-4.02,0.04c-2.68-0.74-4.79-2.86-5.5-5.51
		C7.33,14.92,7.25,13.31,7.39,12.53z M4.34,15.82c0.15-1.03,0.37-1.55,1.41-3.35c0.47-0.81,0.87-1.46,0.9-1.44
		c0.02,0.02-0.04,0.26-0.11,0.53c-0.37,1.25-0.37,3.06,0,4.48c0.21,0.8,0.96,2.3,1.5,3.01c0.82,1.09,2.17,2.18,3.32,2.7
		c0.24,0.1,0.76,0.29,1.14,0.41l0.69,0.21H11.2c-2.27,0.01-2.68-0.06-3.84-0.67C5.28,20.61,4.01,18.15,4.34,15.82z"/>
	<path class="st2" d="M5.91,23.41c2.73,2.74,5.17,5.13,5.42,5.34c0.56,0.43,1.39,0.85,2.13,1.06c0.82,0.25,2.39,0.22,3.24-0.05
		c1.36-0.43,1.62-0.63,4.9-3.87c6.92-6.84,7.21-7.15,7.61-7.82c0.62-1.06,0.8-1.76,0.8-3.05c0-0.97-0.03-1.2-0.26-1.85
		c-0.49-1.42-0.55-1.49-5.95-6.84c-2.77-2.75-5.25-5.13-5.5-5.3c-0.66-0.44-1.33-0.72-2.14-0.89c-1.52-0.31-3.01-0.03-4.41,0.84
		c-0.32,0.2-2.4,2.21-5.65,5.47c-4.9,4.91-5.16,5.19-5.48,5.84C0.13,13.28,0,13.84,0,15.02s0.13,1.74,0.61,2.73
		C0.93,18.4,1.2,18.7,5.91,23.41z M0.82,13.49c0.4-1.25,0.56-1.44,5.87-6.72c2.86-2.85,5.21-5.11,5.47-5.28
		c0.54-0.33,1.35-0.64,2.03-0.75c0.69-0.12,0.98-0.11,1.73,0.03c0.75,0.15,1.49,0.44,2.08,0.85c0.64,0.44,10.19,10.02,10.57,10.6
		c1.07,1.65,1.06,3.97-0.01,5.63C28.11,18.54,18.62,28,17.87,28.5c-1.88,1.24-4.25,1.14-6.09-0.26c-0.3-0.22-2.73-2.6-5.4-5.29
		c-5.23-5.24-5.2-5.21-5.59-6.56C0.55,15.63,0.57,14.28,0.82,13.49z"/>
</g>
</svg>
