<?xml version="1.0" encoding="utf-8"?>
<!-- Generator: Adobe Illustrator 25.0.0, SVG Export Plug-In . SVG Version: 6.00 Build 0)  -->
<svg version="1.1" id="Layer_1" xmlns="http://www.w3.org/2000/svg" xmlns:xlink="http://www.w3.org/1999/xlink" x="0px" y="0px"
	 viewBox="0 0 32 32" style="enable-background:new 0 0 32 32;" xml:space="preserve">
<style type="text/css">
	.st0{fill-rule:evenodd;clip-rule:evenodd;fill:#FFFFFF;}
	.st1{fill:#FFFFFF;}
</style>
<path class="st0" d="M15.4,7.4c-0.8,0.1-1.5,0.4-2,1c-0.4,0.4-0.8,0.8-1.2,1.2c-0.2,0.2-0.4,0.4-0.6,0.6c-0.2,0.2-0.4,0.4-0.6,0.6
	c-0.2,0.2-0.4,0.4-0.6,0.6c-0.3,0.3-0.6,0.6-0.9,0.9c-0.2,0.2-0.5,0.5-0.7,0.7c-0.1,0.1-0.3,0.3-0.4,0.4c-0.5,0.7-0.8,1.5-0.8,2.3
	c0,0,0,0.1,0,0.2c0,0.5,0.1,1,0.4,1.4C8,17.7,8.2,18,8.3,18.2c0.1,0.2,0.2,0.2,0.3,0c0,0,0.1-0.1,0.1-0.1c0.1-0.2,0.3-0.3,0.4-0.5
	c0.2-0.2,0.4-0.4,0.6-0.7c0.2-0.2,0.4-0.5,0.7-0.7c0.1-0.1,0.2-0.2,0.3-0.3c0.2-0.2,0.5-0.5,0.7-0.7c0.2-0.2,0.5-0.5,0.7-0.7
	s0.5-0.5,0.8-0.8c0.3-0.3,0.5-0.5,0.7-0.7c0.3-0.3,0.6-0.6,0.9-1c0.2-0.2,0.4-0.4,0.6-0.6c0.3-0.3,0.5-0.5,0.8-0.8s0.4-0.4,0.7-0.7
	c0.5-0.5,1-1,1.5-1.5c0,0,0.1-0.1,0.1-0.1c0.1-0.2,0.1-0.2,0-0.3c-0.2-0.2-0.5-0.3-0.7-0.5c-0.5-0.2-0.9-0.3-1.4-0.3h0
	C15.8,7.4,15.6,7.4,15.4,7.4L15.4,7.4L15.4,7.4z M19.7,10.6L19.7,10.6c-0.5,0-0.9,0.2-1.2,0.5c0,0-0.1,0.1-0.1,0.1L17.7,12
	c-0.3,0.3-0.5,0.5-0.8,0.8c-0.2,0.2-0.5,0.4-0.7,0.7c-0.2,0.2-0.5,0.5-0.7,0.7c-0.2,0.2-0.5,0.5-0.8,0.7l-0.9,0.9l-1.7,1.7
	c-0.7,0.7-1.5,1.5-2.2,2.2c-0.1,0.1-0.1,0.2,0,0.3c0.3,0.4,0.7,0.7,1,1.1c0.2,0.2,0.5,0.4,0.8,0.4c0.3,0.1,0.6,0,0.9,0
	c0.2-0.1,0.4-0.2,0.6-0.3l0.9-0.8c0.2-0.2,0.4-0.4,0.6-0.6c0.4-0.4,0.8-0.8,1.2-1.2c0.3-0.3,0.7-0.6,1-1l1.4-1.3
	c0.4-0.4,0.8-0.8,1.3-1.2c0.1-0.1,0.3-0.2,0.4-0.1c0,0,0.1,0.1,0.1,0.1c0.2,0.3,0.3,0.7,0.3,1.1c0,0.1,0,0.1,0,0.2
	c0,0.4-0.2,0.8-0.5,1c-0.3,0.3-0.6,0.7-1,1c-0.2,0.2-0.5,0.5-0.7,0.7c-0.3,0.3-0.6,0.6-0.9,0.9c0,0-0.1,0.1-0.1,0.1l-0.3,0.3
	c-0.2,0.2-0.4,0.4-0.7,0.7c-0.2,0.2-0.5,0.5-0.7,0.7c0,0,0,0-0.1,0.1c-0.3,0.2-0.5,0.5-0.7,0.7c-0.1,0.1-0.2,0.2-0.3,0.3
	c-0.2,0.2-0.4,0.4-0.6,0.6c-0.1,0.1-0.1,0.2,0,0.3c0.2,0.2,0.5,0.3,0.7,0.5c0.6,0.3,1.3,0.4,2,0.3c0.7-0.1,1.3-0.4,1.8-0.8
	c0.4-0.3,0.7-0.7,1.1-1.1c0.3-0.3,0.5-0.5,0.8-0.8l0.8-0.8c0.2-0.2,0.5-0.5,0.7-0.7s0.5-0.5,0.8-0.8c0.3-0.3,0.5-0.5,0.8-0.8
	c0.2-0.2,0.4-0.4,0.6-0.7c0.3-0.5,0.5-1.1,0.6-1.6c0-0.3,0-0.6,0-0.9c-0.1-0.5-0.3-1-0.6-1.5c-0.2-0.3-0.5-0.6-0.7-0.8
	c-0.7-0.7-1.4-1.4-2.1-2.2C20.7,10.8,20.3,10.6,19.7,10.6L19.7,10.6L19.7,10.6L19.7,10.6z"/>
<g>
	<path class="st1" d="M16.7,0.3c0,0,0.1,0,0.1,0c1.4,0.1,2.8,0.3,4.2,0.8c1.6,0.5,3.2,1.3,4.5,2.4c1.9,1.4,3.4,3.2,4.4,5.3
		c1,1.9,1.5,3.8,1.7,5.9c0,0.2,0,0.3,0,0.5l0,0.2l0,1.4c0,0,0,0.1,0,0.1c0,0.1,0,0.3,0,0.4c0,0.3,0,0.6-0.1,0.9
		c-0.2,1.2-0.4,2.3-0.8,3.3c-0.7,2-1.9,3.8-3.3,5.3c-1.2,1.3-2.6,2.3-4.2,3.2c-1.7,0.9-3.6,1.5-5.5,1.7c-0.2,0-0.5,0.1-0.7,0.1
		l-0.3,0h-1.4c0,0-0.1,0-0.1,0c-1.3,0-2.5-0.3-3.8-0.6c-2.3-0.7-4.3-1.8-6.1-3.4c-1.6-1.5-2.9-3.3-3.8-5.3c-0.7-1.6-1.1-3.3-1.3-5
		c0-0.2,0-0.3,0-0.5l0-0.2l0-1.4c0,0,0-0.1,0-0.1c0.1-1.4,0.3-2.8,0.8-4.1c0.7-2.1,1.8-4,3.3-5.6c1.5-1.6,3.3-2.9,5.3-3.8
		c1.7-0.7,3.4-1.2,5.3-1.3c0.1,0,0.2,0,0.2,0l0.1,0H16.7 M16.7,0c-0.5,0-1,0-1.5,0c-0.1,0-0.2,0-0.3,0C13,0.2,11.3,0.6,9.6,1.4
		C7.5,2.3,5.7,3.6,4.2,5.2c-1.5,1.7-2.6,3.6-3.3,5.7c-0.5,1.4-0.7,2.7-0.8,4.2c0,0,0,0.1,0,0.1c0,0.5,0,1,0,1.5c0,0.2,0,0.4,0.1,0.7
		c0.1,1.8,0.6,3.5,1.3,5.1c0.9,2.1,2.2,3.9,3.9,5.4c1.8,1.6,3.8,2.8,6.2,3.5c1.2,0.4,2.5,0.6,3.8,0.6c0,0,0.1,0,0.1,0
		c0.5,0,1,0,1.5,0c0.4,0,0.7-0.1,1.1-0.1c2-0.2,3.8-0.8,5.6-1.7c1.6-0.8,3-1.9,4.2-3.2c1.5-1.6,2.6-3.4,3.4-5.4
		c0.4-1.1,0.7-2.2,0.9-3.4c0.1-0.4,0.1-0.9,0.1-1.3c0,0,0-0.1,0-0.1c0-0.5,0-1,0-1.4c0-0.2,0-0.5-0.1-0.7c-0.2-2.1-0.8-4.1-1.7-6
		c-1.1-2.1-2.6-3.9-4.5-5.3c-1.4-1.1-2.9-1.9-4.6-2.4C19.7,0.4,18.3,0.1,16.7,0C16.8,0,16.7,0,16.7,0L16.7,0z"/>
</g>
</svg>