<?xml version="1.0" encoding="utf-8"?>
<!-- Generator: Adobe Illustrator 25.0.0, SVG Export Plug-In . SVG Version: 6.00 Build 0)  -->
<svg version="1.1" id="Layer_1" xmlns="http://www.w3.org/2000/svg" xmlns:xlink="http://www.w3.org/1999/xlink" x="0px" y="0px"
	 viewBox="0 0 45 45" style="enable-background:new 0 0 45 45;" xml:space="preserve">
<style type="text/css">
	.st0{fill:#394E6B;}
	.st1{fill:#4FA4F7;}
	.st2{fill:#231F20;}
	.st3{fill:#FFFFFF;}
	.st4{fill-rule:evenodd;clip-rule:evenodd;fill:#FFFFFF;}
	.st5{fill:url(#SVGID_1_);}
	.st6{fill:url(#SVGID_2_);}
	.st7{fill:url(#SVGID_3_);}
	.st8{fill:url(#SVGID_4_);}
	.st9{fill:url(#SVGID_5_);}
	.st10{fill:url(#SVGID_6_);}
	.st11{fill:url(#SVGID_7_);}
	.st12{fill:url(#SVGID_8_);}
	.st13{fill:url(#SVGID_9_);}
	.st14{fill:url(#SVGID_10_);}
	.st15{fill:url(#SVGID_11_);}
</style>
<linearGradient id="SVGID_1_" gradientUnits="userSpaceOnUse" x1="8.3971" y1="6.4983" x2="37.5213" y2="39.511">
	<stop  offset="0" style="stop-color:#A844E2"/>
	<stop  offset="0.0632" style="stop-color:#9944E2"/>
	<stop  offset="0.2078" style="stop-color:#7D43E3"/>
	<stop  offset="0.3633" style="stop-color:#6742E4"/>
	<stop  offset="0.5329" style="stop-color:#5741E5"/>
	<stop  offset="0.7269" style="stop-color:#4E41E5"/>
	<stop  offset="1" style="stop-color:#4B41E5"/>
</linearGradient>
<path class="st5" d="M16.23,19.67c-0.02,3.46,2.78,6.3,6.22,6.32c3.45,0.02,6.3-2.78,6.32-6.23c0.02-3.46-2.78-6.3-6.22-6.32
	C19.08,13.43,16.24,16.22,16.23,19.67z M26.97,19.85c-0.14,2.52-2.22,4.48-4.61,4.34c-2.53-0.15-4.47-2.21-4.34-4.61
	c0.14-2.53,2.23-4.49,4.65-4.34C25.17,15.39,27.11,17.47,26.97,19.85z M35.02,20.61c-2.45,0.01-4.47,2.05-4.46,4.5
	c0.01,2.46,2.03,4.46,4.5,4.45c2.48-0.01,4.47-2.02,4.45-4.49C39.49,22.6,37.48,20.6,35.02,20.61z M35.04,27.77
	c-1.48,0-2.69-1.21-2.68-2.68c0-1.47,1.22-2.69,2.69-2.69c1.48,0,2.68,1.21,2.68,2.69C37.72,26.58,36.52,27.77,35.04,27.77z
	 M5.6,25.08c0,2.46,2.01,4.47,4.48,4.48c2.48,0,4.47-1.99,4.47-4.47c0-2.47-2-4.48-4.47-4.48C7.63,20.61,5.61,22.63,5.6,25.08z
	 M12.76,25.12c-0.01,1.48-1.22,2.66-2.71,2.65c-1.47-0.01-2.69-1.25-2.66-2.71c0.03-1.48,1.26-2.69,2.72-2.66
	C11.6,22.43,12.77,23.63,12.76,25.12z M37.45,8.36c0.02-0.46,0.41-0.83,0.87-0.82s0.84,0.39,0.84,0.85c0,0.47-0.4,0.87-0.87,0.87
	C37.82,9.25,37.44,8.84,37.45,8.36z M43.64,16.39c-0.53-1.81-1.26-3.53-2.23-5.14c-0.32-0.54-0.79-0.71-1.25-0.46
	c-0.46,0.26-0.55,0.76-0.24,1.3c0.03,0.05,0.06,0.1,0.09,0.15c0.02,0.03,0.03,0.06,0.05,0.09c0.22,0.39,0.43,0.78,0.63,1.18
	c0.04,0.09,0.08,0.17,0.12,0.26c0.19,0.4,0.37,0.8,0.54,1.21c0.06,0.16,0.12,0.33,0.18,0.49c0.16,0.45,0.32,0.9,0.45,1.36
	c0.13,0.45,0.25,0.9,0.35,1.36c0.04,0.18,0.07,0.35,0.1,0.53c0.09,0.45,0.15,0.91,0.21,1.36c0.02,0.18,0.04,0.35,0.06,0.53
	c0.05,0.5,0.07,1.01,0.08,1.53c0,0.11,0.02,0.22,0.02,0.33c0,0.15-0.02,0.29-0.02,0.44c-0.01,0.38-0.02,0.76-0.05,1.15
	c0,0.05-0.01,0.09-0.02,0.13C42.66,24.6,42.6,25,42.55,25.4c-0.04,0.29-0.08,0.59-0.13,0.88c-0.05,0.24-0.1,0.48-0.16,0.72
	c-0.11,0.49-0.23,0.97-0.37,1.45c-0.01,0.05-0.03,0.09-0.04,0.14c-0.75,2.44-1.95,4.66-3.59,6.66c-0.07,0.09-0.14,0.17-0.21,0.26
	c-0.32,0.38-0.66,0.75-1.02,1.12c-0.11,0.11-0.21,0.22-0.32,0.33c-0.15,0.14-0.28,0.29-0.43,0.44c-0.09,0.08-0.19,0.16-0.27,0.22
	c0-0.01,0-0.01-0.01-0.02c-0.57,0.51-1.16,0.99-1.79,1.44c-0.05,0.05-0.12,0.11-0.2,0.17c-0.08-0.65-0.18-1.31-0.34-1.94
	c-0.23-0.9-0.64-1.74-0.98-2.63c0.07-0.03,0.17-0.08,0.29-0.12c1.84-0.64,3.81-0.36,5.38,0.61c0.38-0.47,0.74-0.95,1.07-1.44
	c-2.12-1.38-4.88-1.74-7.56-0.64c-0.24,0.1-0.35,0.03-0.5-0.14c-4.73-5.47-12.99-5.49-17.7-0.02c-0.18,0.21-0.31,0.25-0.56,0.14
	c-2.56-1.06-5.33-0.76-7.53,0.7c-0.38-0.57-0.75-1.16-1.07-1.78c-1.25-2.29-2-4.73-2.23-7.32c0-0.04-0.01-0.07-0.01-0.11
	c-0.03-0.34-0.04-0.69-0.05-1.04c-0.02-0.33-0.05-0.66-0.05-0.99c0-11.22,9.1-20.32,20.32-20.32c4.68,0,8.98,1.6,12.41,4.26
	c0.46,0.33,0.96,0.28,1.26-0.1c0.33-0.42,0.23-0.92-0.27-1.3c-2.84-2.17-6.01-3.58-9.53-4.18c-0.84-0.14-1.7-0.23-2.55-0.34
	c-0.89,0-1.78,0-2.67,0c-0.82,0.11-1.64,0.2-2.46,0.34C9.85,2.28,2.55,9.42,0.91,18.2c-0.18,0.97-0.29,1.95-0.43,2.92
	c0,0.92,0,1.83,0,2.75c0.03,0.14,0.06,0.28,0.08,0.42c0.13,0.89,0.2,1.8,0.38,2.68C3.43,38.95,15.2,46.6,27.16,44.01
	C39.6,41.31,47.19,28.59,43.64,16.39z M34.01,39.2c-0.05,0.04-0.11,0.08-0.18,0.13C33.9,39.28,33.96,39.24,34.01,39.2z M5.56,33.7
	c0.33,0.49,0.67,0.97,1.04,1.43c1.05-0.66,2.31-1.01,3.69-0.96c0.72,0.03,1.42,0.17,2.08,0.49c-0.87,1.76-1.29,3.05-1.44,4.5
	C8.81,37.7,6.99,35.84,5.56,33.7z M30.2,41.25c-0.42,0.17-0.84,0.32-1.27,0.46c-0.22,0.07-0.44,0.15-0.67,0.22
	c-0.14,0.04-0.28,0.07-0.42,0.11c-1.35,0.37-2.75,0.6-4.19,0.68c-0.09,0.01-0.18,0.01-0.27,0.01c-0.3,0.01-0.6,0.05-0.91,0.05
	c-0.07,0-0.15-0.01-0.22-0.01c-0.12,0-0.24,0.01-0.36,0.01c-2.34-0.02-4.79-0.53-7.17-1.54c-0.18-0.07-0.35-0.16-0.53-0.24
	c-0.3-0.14-0.6-0.28-0.9-0.43c-0.31-0.16-0.61-0.32-0.9-0.49c0.09,0.05,0.19,0.1,0.28,0.15c0.02-0.39,0.03-0.78,0.09-1.16
	c0.66-4,2.9-6.76,6.73-8.01c3.83-1.24,7.27-0.32,10.11,2.54c1.8,1.81,2.68,4.05,2.75,6.61c-0.6,0.33-1.22,0.64-1.85,0.91
	C30.39,41.18,30.3,41.21,30.2,41.25z"/>
</svg>
