<?xml version="1.0" encoding="utf-8"?>
<!-- Generator: Adobe Illustrator 25.0.0, SVG Export Plug-In . SVG Version: 6.00 Build 0)  -->
<svg version="1.1" id="Layer_1" xmlns="http://www.w3.org/2000/svg" xmlns:xlink="http://www.w3.org/1999/xlink" x="0px" y="0px"
	 viewBox="0 0 45 45" style="enable-background:new 0 0 45 45;" xml:space="preserve">
<style type="text/css">
	.st0{fill:#394E6B;}
	.st1{fill:#4FA4F7;}
	.st2{fill:#231F20;}
	.st3{fill:#FFFFFF;}
	.st4{fill-rule:evenodd;clip-rule:evenodd;fill:#FFFFFF;}
	.st5{fill:url(#SVGID_1_);}
	.st6{fill:url(#SVGID_2_);}
	.st7{fill:url(#SVGID_3_);}
	.st8{fill:url(#SVGID_4_);}
	.st9{fill:url(#SVGID_5_);}
	.st10{fill:url(#SVGID_6_);}
	.st11{fill:url(#SVGID_7_);}
	.st12{fill:url(#SVGID_8_);}
</style>
<linearGradient id="SVGID_1_" gradientUnits="userSpaceOnUse" x1="5.1798" y1="-1.8508" x2="30.0518" y2="34.4861">
	<stop  offset="0" style="stop-color:#A844E2"/>
	<stop  offset="0.2893" style="stop-color:#8243E3"/>
	<stop  offset="0.5787" style="stop-color:#6442E4"/>
	<stop  offset="0.8257" style="stop-color:#5241E5"/>
	<stop  offset="1" style="stop-color:#4B41E5"/>
</linearGradient>
<path class="st5" d="M44.52,30.66c-0.14,0.79-0.21,1.59-0.42,2.35c-1.65,6-5.5,9.77-11.61,10.96c-5,0.97-9.36-0.55-13-4.11
	c-0.21-0.2-0.41-0.27-0.68-0.27c-3.24,0.01-6.48,0.02-9.71,0c-2.3-0.01-4.07-1.89-3.95-4.18c0.06-1.14,0.57-2.08,1.48-2.86
	c-0.93-0.82-1.47-1.82-1.48-3.07c-0.01-1.25,0.51-2.27,1.48-3.12c-0.94-0.83-1.48-1.85-1.48-3.1c0-1.25,0.53-2.26,1.48-3.09
	c-0.75-0.66-1.24-1.44-1.42-2.41c-0.42-2.33,1.36-4.56,3.74-4.63c0.77-0.02,1.54,0,2.38,0c-0.89-1.51-0.89-2.97,0-4.48
	c-0.35,0-0.63,0-0.91,0c-2.02,0-4.04,0.02-6.06-0.01C2.4,8.62,0.84,7.19,0.53,5.21c-0.28-1.77,0.83-3.63,2.6-4.22
	C3.59,0.83,4.1,0.75,4.59,0.75c6.92-0.02,13.84-0.01,20.76-0.01c3.21,0,5.08,3.13,3.57,5.95c-0.03,0.06-0.06,0.12-0.12,0.24
	c0.2,0,0.36,0,0.51,0c2.13,0,4.27-0.02,6.4,0.01c2.22,0.02,3.95,1.85,3.9,4.06c-0.05,2.05-1.73,3.77-3.79,3.83
	c-0.77,0.02-1.54,0-2.35,0c0.15,0.46,0.37,0.72,0.84,0.88c5.64,1.99,9,5.93,10.04,11.83c0.06,0.32,0.11,0.65,0.16,0.97
	C44.52,29.23,44.52,29.95,44.52,30.66z M29.88,16.73C22.77,16.75,16.98,22.55,17,29.66c0.02,7.09,5.8,12.87,12.9,12.87
	c7.11,0,12.91-5.8,12.9-12.91C42.79,22.51,36.99,16.72,29.88,16.73z M14.96,6.93c0.1,0,0.2,0,0.3,0c3.4,0,6.79,0,10.19,0
	c1.35,0,2.36-1.05,2.3-2.35c-0.06-1.22-1.05-2.11-2.36-2.12c-5.64,0-11.29,0-16.93,0c-1.33,0-2.66-0.01-4,0
	C3.43,2.47,2.57,3.13,2.3,4.07C1.88,5.53,2.95,6.93,4.52,6.93C8,6.94,11.48,6.93,14.96,6.93z M25.14,13.12c3.48,0,6.96,0,10.44,0
	c1.36,0,2.37-1.03,2.31-2.34c-0.05-1.22-1.05-2.13-2.35-2.13c-6.93,0-13.87,0-20.8,0c-0.09,0-0.17,0-0.26,0
	c-0.95,0.05-1.79,0.72-2.04,1.64c-0.4,1.45,0.67,2.82,2.21,2.83C18.15,13.13,21.64,13.12,25.14,13.12z M30.79,15.03
	c0.01-0.04,0.01-0.08,0.02-0.12c-0.31-0.02-0.61-0.07-0.92-0.07c-5.79,0-11.58,0-17.37,0c-1.15,0-2.29-0.01-3.44,0
	c-1.01,0.01-1.87,0.67-2.14,1.61c-0.42,1.46,0.65,2.85,2.22,2.85c3.32,0.01,6.65,0,9.97,0.01c0.29,0,0.5-0.08,0.72-0.28
	c1.72-1.64,3.73-2.79,6.01-3.45C27.47,15.12,29.12,14.95,30.79,15.03z M17.92,21.04c0.03,0-0.01-0.01-0.05-0.01
	c-2.93,0-5.87,0-8.8,0c-0.24,0-0.49,0.05-0.71,0.13c-1.01,0.35-1.65,1.41-1.47,2.44c0.18,1.08,1.08,1.88,2.17,1.89
	c1.95,0.02,3.89,0.01,5.84,0.01c0.95,0,0.91-0.02,1.29-0.88C16.72,23.41,17.33,22.24,17.92,21.04z M15.63,33.42
	c-2.15,0-4.4-0.02-6.65,0.01c-0.91,0.01-1.57,0.51-1.94,1.34c-0.65,1.47,0.42,3.11,2.05,3.11c2.84,0.02,5.67,0,8.51,0
	c0.05,0,0.1-0.01,0.08-0.01C17.01,36.41,16.34,34.95,15.63,33.42z M15.37,27.24c-0.02,0-0.1-0.01-0.19-0.01c-2.03,0-4.07,0-6.1,0
	c-0.14,0-0.29,0.02-0.43,0.05c-1.15,0.24-1.91,1.28-1.79,2.42c0.12,1.12,1.06,1.99,2.21,2c1.85,0.01,3.69,0,5.54,0
	c0.25,0,0.51,0,0.75,0C15.37,30.19,15.37,28.73,15.37,27.24z M31.13,35.22c1.45-0.5,2.4-1.77,2.38-3.19
	c-0.02-1.42-1.03-2.73-2.49-3.15c-0.45-0.13-0.93-0.15-1.4-0.2c-0.74-0.08-1.36-0.57-1.56-1.23c-0.17-0.58,0.04-1.19,0.57-1.6
	c0.63-0.48,1.34-0.56,2.07-0.27c0.68,0.28,1.05,0.79,1.1,1.55c0.04,0.56,0.55,0.89,1.08,0.75c0.4-0.11,0.64-0.47,0.62-0.96
	c-0.04-1.32-0.99-2.54-2.38-3.01c-0.27-0.09-0.39-0.19-0.38-0.5c0.01-0.55-0.37-0.93-0.86-0.93c-0.48,0-0.85,0.39-0.84,0.94
	c0,0.28-0.09,0.38-0.35,0.47c-1.55,0.52-2.49,1.85-2.4,3.37c0.08,1.45,1.22,2.7,2.78,3.04c0.42,0.09,0.85,0.08,1.28,0.16
	c1.04,0.19,1.66,1.15,1.36,2.05c-0.27,0.79-1.15,1.26-2.13,1.14c-0.86-0.11-1.48-0.73-1.56-1.57c-0.05-0.56-0.41-0.92-0.9-0.9
	c-0.51,0.02-0.86,0.43-0.82,1.01c0.09,1.3,0.77,2.21,1.91,2.81c0.26,0.14,0.55,0.22,0.81,0.33c0.06,0.83,0.34,1.21,0.89,1.2
	c0.54,0,0.81-0.36,0.88-1.22C30.91,35.3,31.02,35.26,31.13,35.22z M37.58,21.52c-0.83-0.8-1.77-1.45-2.81-1.94
	c-0.48-0.23-0.95-0.06-1.17,0.37c-0.21,0.42-0.06,0.87,0.37,1.14c0.12,0.07,0.25,0.13,0.38,0.2c3.1,1.77,4.77,4.44,4.99,8
	c0.1,1.6-0.27,3.12-0.98,4.57c-0.11,0.22-0.2,0.49-0.19,0.73c0.03,0.39,0.28,0.65,0.68,0.72c0.43,0.07,0.74-0.11,0.95-0.5
	c0.84-1.63,1.26-3.37,1.27-5.44C41.01,26.43,39.87,23.72,37.58,21.52z M22.77,38.21c0.7,0.58,1.51,1.02,2.3,1.48
	c0.42,0.24,0.89,0.05,1.11-0.34c0.23-0.41,0.1-0.88-0.31-1.16c-0.13-0.09-0.28-0.15-0.41-0.23c-1.94-1.06-3.37-2.6-4.23-4.63
	c-1.13-2.67-1.03-5.32,0.21-7.93c0.11-0.22,0.2-0.49,0.19-0.73c-0.02-0.39-0.28-0.66-0.68-0.72c-0.43-0.07-0.75,0.11-0.95,0.5
	c-0.85,1.63-1.26,3.37-1.28,5.52C18.8,33.11,20.11,35.99,22.77,38.21z M32.1,19.33c0.01-0.47-0.38-0.86-0.87-0.87
	c-0.49-0.01-0.89,0.37-0.89,0.85c-0.01,0.48,0.38,0.86,0.87,0.87C31.69,20.18,32.09,19.8,32.1,19.33z M28.6,39.09
	c-0.49-0.01-0.89,0.37-0.9,0.84c-0.01,0.47,0.38,0.87,0.87,0.87c0.49,0.01,0.89-0.37,0.9-0.85C29.47,39.49,29.09,39.1,28.6,39.09z"
	/>
</svg>
