<?xml version="1.0" encoding="utf-8"?>
<!-- Generator: Adobe Illustrator 25.0.0, SVG Export Plug-In . SVG Version: 6.00 Build 0)  -->
<svg version="1.1" id="Layer_1" xmlns="http://www.w3.org/2000/svg" xmlns:xlink="http://www.w3.org/1999/xlink" x="0px" y="0px"
	 viewBox="0 0 45 45" style="enable-background:new 0 0 45 45;" xml:space="preserve">
<style type="text/css">
	.st0{fill:#394E6B;}
	.st1{fill:#4FA4F7;}
	.st2{fill:#231F20;}
	.st3{fill:#FFFFFF;}
	.st4{fill-rule:evenodd;clip-rule:evenodd;fill:#FFFFFF;}
	.st5{fill:url(#SVGID_1_);}
	.st6{fill:url(#SVGID_2_);}
	.st7{fill:url(#SVGID_3_);}
	.st8{fill:url(#SVGID_4_);}
	.st9{fill:url(#SVGID_5_);}
	.st10{fill:url(#SVGID_6_);}
	.st11{fill:url(#SVGID_7_);}
	.st12{fill:url(#SVGID_8_);}
</style>
<linearGradient id="SVGID_1_" gradientUnits="userSpaceOnUse" x1="-3.1077" y1="22.5" x2="40.2203" y2="22.5">
	<stop  offset="0" style="stop-color:#A844E2"/>
	<stop  offset="0.2894" style="stop-color:#8243E3"/>
	<stop  offset="0.5788" style="stop-color:#6442E4"/>
	<stop  offset="0.8257" style="stop-color:#5241E5"/>
	<stop  offset="1" style="stop-color:#4B41E5"/>
</linearGradient>
<path class="st5" d="M8.02,37.98c0.01,0.47-0.38,0.86-0.85,0.86c-0.45,0-0.83-0.37-0.84-0.82c-0.01-0.47,0.38-0.86,0.85-0.86
	C7.62,37.15,8,37.53,8.02,37.98z M37.95,24.19c-5.55,0-11.09,0-16.64,0c-0.16,0-0.32,0-0.5,0c0-0.24,0-0.41,0-0.58
	c0-5.55,0-11.09,0-16.64c0-0.78-0.3-1.11-1.07-1.07c-0.53,0.03-1.06,0.06-1.58,0.11c-0.22,0.02-0.45,0.05-0.67,0.07
	C17.4,6.1,17.3,6.11,17.21,6.12c-0.17,0.03-0.33,0.06-0.5,0.09v0C7.72,7.78,0.85,15.61,0.85,25.04c0,3.88,1.16,7.62,3.34,10.81
	c0.29,0.43,0.89,0.54,1.32,0.25c0.43-0.3,0.54-0.89,0.25-1.32c-1.97-2.87-3.01-6.24-3.01-9.74c0-9.21,7.27-16.73,16.37-17.19
	c0,0.1,0,0.21,0,0.31c0,5.5,0,11.01,0.01,16.51c0,0.34,0.07,0.7,0.2,1.02c0.03,0.07,0.06,0.14,0.09,0.22h1.83c5.23,0,10.4,0,15.66,0
	c0.09,0,0.19,0,0.28,0v0.31c-0.04,0.29-0.08,0.61-0.12,0.95c-0.09,0.7-0.2,1.38-0.37,2.05c-0.01,0-0.02,0.01-0.03,0.01
	c-0.58,2.41-1.79,5.36-4.66,8.13c-0.02,0.02-0.04,0.03-0.06,0.05c-0.07,0.06-0.14,0.12-0.21,0.19c-0.31,0.29-0.62,0.55-0.93,0.8
	c-0.16,0.13-0.31,0.26-0.48,0.38c-0.33,0.25-0.66,0.48-0.99,0.69c-0.17,0.11-0.33,0.22-0.5,0.32c-0.41,0.25-0.81,0.47-1.21,0.67
	c-0.06,0.03-0.12,0.07-0.19,0.1c0,0,0,0,0-0.01C24.95,41.79,23,42.02,23,42.02l0,0c-0.98,0.18-1.98,0.27-3.01,0.27
	c-3.35,0-6.6-0.96-9.4-2.78c-0.44-0.28-1.03-0.16-1.31,0.28C9,40.22,9.12,40.81,9.56,41.09c2.09,1.36,4.42,2.28,6.85,2.74
	c0.06,0.01,0.12,0.02,0.18,0.03c0.41,0.07,0.83,0.14,1.25,0.18c0.2,0.02,0.41,0.05,0.61,0.07c0.51,0.04,1.03,0.07,1.55,0.07
	c10.26,0,18.64-8.12,19.1-18.27h-0.03c0.01-0.19,0.03-0.37,0.04-0.55C39.12,24.46,38.84,24.19,37.95,24.19z M44.18,19.73
	c0.01,0.77-0.29,1.07-1.07,1.07c-5.94,0-11.88,0-17.82,0c-0.81,0-1.09-0.29-1.09-1.1c0-5.93,0-11.85-0.01-17.78
	c0-0.51,0.16-0.87,0.6-1.11c0.48,0,0.96,0,1.44,0c0.85,0.13,1.71,0.21,2.54,0.4c6.22,1.44,10.71,5.09,13.56,10.76
	C43.55,14.41,44.14,17.01,44.18,19.73z M42.44,19.09C42,10.08,33.94,2.8,25.92,2.58c0,5.51,0,11.01,0,16.51
	C31.45,19.09,36.95,19.09,42.44,19.09z"/>
</svg>
