<?xml version="1.0" encoding="utf-8"?>
<!-- Generator: Adobe Illustrator 25.0.0, SVG Export Plug-In . SVG Version: 6.00 Build 0)  -->
<svg version="1.1" id="Layer_1" xmlns="http://www.w3.org/2000/svg" xmlns:xlink="http://www.w3.org/1999/xlink" x="0px" y="0px"
	 viewBox="0 0 32 32" style="enable-background:new 0 0 32 32;" xml:space="preserve">
<style type="text/css">
	.st0{fill:#394E6B;}
	.st1{fill:#4FA4F7;}
	.st2{fill:#231F20;}
	.st3{fill:#FFFFFF;}
	.st4{fill-rule:evenodd;clip-rule:evenodd;fill:#FFFFFF;}
	.st5{fill:url(#SVGID_1_);}
	.st6{fill:url(#SVGID_2_);}
	.st7{fill:url(#SVGID_3_);}
	.st8{fill:url(#SVGID_4_);}
	.st9{fill:url(#SVGID_5_);}
	.st10{fill:url(#SVGID_6_);}
	.st11{fill:url(#SVGID_7_);}
	.st12{fill:url(#SVGID_8_);}
</style>
<g>
	<path class="st3" d="M19.49,17.97c0-1.85-1.11-2.48-3.33-2.75c-1.58-0.21-1.9-0.63-1.9-1.37c0-0.74,0.53-1.22,1.58-1.22
		c0.95,0,1.48,0.32,1.74,1.11c0.05,0.16,0.21,0.26,0.37,0.26h0.85c0.21,0,0.37-0.16,0.37-0.37v-0.05c-0.21-1.16-1.16-2.06-2.38-2.17
		v-1.27c0-0.21-0.16-0.37-0.42-0.42h-0.79c-0.21,0-0.37,0.16-0.42,0.42v1.22c-1.58,0.21-2.59,1.27-2.59,2.59
		c0,1.74,1.06,2.43,3.28,2.69c1.48,0.26,1.95,0.58,1.95,1.43s-0.74,1.43-1.74,1.43c-1.37,0-1.85-0.58-2.01-1.37
		c-0.05-0.21-0.21-0.32-0.37-0.32h-0.9c-0.21,0-0.37,0.16-0.37,0.37v0.05c0.21,1.32,1.06,2.27,2.8,2.54v1.27
		c0,0.21,0.16,0.37,0.42,0.42h0.79c0.21,0,0.37-0.16,0.42-0.42v-1.27C18.43,20.51,19.49,19.4,19.49,17.97L19.49,17.97z"/>
	<path class="st3" d="M13.31,23.52c-4.12-1.48-6.23-6.08-4.7-10.14c0.79-2.22,2.54-3.91,4.7-4.7c0.21-0.11,0.32-0.26,0.32-0.53V7.4
		c0-0.21-0.11-0.37-0.32-0.42c-0.05,0-0.16,0-0.21,0.05c-5.02,1.58-7.77,6.92-6.18,11.94c0.95,2.96,3.22,5.23,6.18,6.18
		c0.21,0.11,0.42,0,0.48-0.21c0.05-0.05,0.05-0.11,0.05-0.21v-0.74C13.62,23.83,13.46,23.62,13.31,23.52z M18.91,7.03
		c-0.21-0.11-0.42,0-0.48,0.21c-0.05,0.05-0.05,0.11-0.05,0.21V8.2c0,0.21,0.16,0.42,0.32,0.53c4.12,1.48,6.23,6.08,4.7,10.14
		c-0.79,2.22-2.54,3.91-4.7,4.7c-0.21,0.11-0.32,0.26-0.32,0.53v0.74c0,0.21,0.11,0.37,0.32,0.42c0.05,0,0.16,0,0.21-0.05
		c5.02-1.58,7.77-6.92,6.18-11.94C24.14,10.26,21.81,7.98,18.91,7.03L18.91,7.03z"/>
</g>
<g>
	<path class="st3" d="M16.66,0.26c0.03,0.01,0.07,0.02,0.12,0.02c1.4,0.06,2.81,0.33,4.19,0.78c1.64,0.54,3.17,1.35,4.54,2.4
		c1.87,1.43,3.36,3.19,4.43,5.25c0.97,1.86,1.55,3.84,1.72,5.9c0.01,0.16,0.03,0.32,0.04,0.48l0.02,0.2l0,1.41
		c-0.01,0.04-0.02,0.08-0.02,0.12c-0.01,0.15-0.03,0.29-0.04,0.44c-0.02,0.3-0.05,0.6-0.09,0.89c-0.16,1.15-0.45,2.27-0.84,3.32
		c-0.74,1.98-1.85,3.77-3.3,5.31c-1.21,1.28-2.61,2.34-4.15,3.15c-1.72,0.9-3.57,1.47-5.49,1.69c-0.24,0.03-0.48,0.05-0.72,0.07
		l-0.31,0.03h-1.41c-0.03-0.01-0.07-0.02-0.12-0.02c-1.25-0.05-2.52-0.26-3.75-0.64c-2.27-0.69-4.31-1.84-6.05-3.42
		c-1.65-1.5-2.94-3.29-3.83-5.32c-0.7-1.6-1.13-3.28-1.27-5c-0.01-0.16-0.03-0.31-0.04-0.47L0.26,16.7l0-1.44
		c0.01-0.04,0.02-0.09,0.02-0.13c0.08-1.41,0.35-2.79,0.79-4.11c0.7-2.08,1.8-3.96,3.28-5.59c1.49-1.64,3.27-2.93,5.3-3.82
		c1.66-0.73,3.43-1.17,5.25-1.29C15,0.3,15.08,0.29,15.16,0.28l0.07-0.01H16.66 M16.7,0c-0.49,0-0.97,0-1.46,0
		c-0.11,0.01-0.23,0.03-0.34,0.04c-1.86,0.13-3.64,0.57-5.34,1.32C7.48,2.27,5.68,3.57,4.16,5.24C2.65,6.9,1.54,8.79,0.83,10.93
		c-0.45,1.36-0.72,2.75-0.8,4.18c0,0.04-0.02,0.09-0.02,0.13c0,0.49,0,0.97,0,1.46c0.02,0.22,0.04,0.45,0.06,0.67
		c0.15,1.77,0.58,3.46,1.29,5.08c0.92,2.08,2.22,3.88,3.9,5.4c1.79,1.62,3.84,2.78,6.15,3.48c1.24,0.38,2.52,0.6,3.82,0.65
		c0.03,0,0.05,0.02,0.08,0.02c0.49,0,0.97,0,1.46,0c0.36-0.04,0.71-0.07,1.07-0.11c1.97-0.23,3.83-0.8,5.58-1.72
		c1.59-0.83,2.99-1.9,4.22-3.2c1.48-1.57,2.6-3.37,3.36-5.39c0.41-1.09,0.69-2.22,0.85-3.37c0.06-0.45,0.09-0.9,0.13-1.35
		c0-0.04,0.02-0.09,0.02-0.13c0-0.48,0-0.95,0-1.43c-0.02-0.23-0.05-0.47-0.06-0.7c-0.18-2.12-0.77-4.12-1.75-6
		c-1.1-2.12-2.61-3.89-4.51-5.34c-1.4-1.07-2.94-1.88-4.62-2.44c-1.39-0.46-2.81-0.73-4.26-0.8C16.76,0.02,16.73,0.01,16.7,0L16.7,0
		z"/>
</g>
</svg>
