<svg id="Layer_1" data-name="Layer 1" xmlns="http://www.w3.org/2000/svg" viewBox="0 0 140 72"><defs><style>.cls-1{fill:#fff;}</style></defs><path class="cls-1" d="M57.72,41.66V30.23h1.73v4.9H65v-4.9h1.73V41.66H65V36.55H59.45v5.11Zm14,.2a3.67,3.67,0,0,1-1.7-.34,2.38,2.38,0,0,1-1-.9,2.45,2.45,0,0,1-.33-1.24,2.19,2.19,0,0,1,.92-1.86,4.27,4.27,0,0,1,2.61-.69h2.12v-.15a1.82,1.82,0,0,0-.52-1.42,1.89,1.89,0,0,0-1.32-.47,2.22,2.22,0,0,0-1.26.36,1.46,1.46,0,0,0-.64,1H68.88a2.77,2.77,0,0,1,.59-1.51,3.41,3.41,0,0,1,1.31-1,4.34,4.34,0,0,1,1.75-.34,3.69,3.69,0,0,1,2.63.89,3.19,3.19,0,0,1,.93,2.42v5H74.58l-.14-1.38a3.05,3.05,0,0,1-1,1.12A2.9,2.9,0,0,1,71.73,41.86Zm.34-1.4a2,2,0,0,0,1.17-.33,2.3,2.3,0,0,0,.76-.9A3.51,3.51,0,0,0,74.34,38H72.41a2.37,2.37,0,0,0-1.47.35,1.14,1.14,0,0,0-.42.9,1.06,1.06,0,0,0,.4.88A1.91,1.91,0,0,0,72.07,40.46Zm9.27,1.4a4.09,4.09,0,0,1-2.53-.75,2.82,2.82,0,0,1-1.15-2h1.75a1.8,1.8,0,0,0,.62,1,2,2,0,0,0,1.29.39,1.66,1.66,0,0,0,1.15-.33,1,1,0,0,0,.36-.75.81.81,0,0,0-.51-.83A6.71,6.71,0,0,0,81,38.15a11.88,11.88,0,0,1-1.38-.39,3,3,0,0,1-1.12-.69A1.65,1.65,0,0,1,78,35.85a2.21,2.21,0,0,1,.81-1.76,3.36,3.36,0,0,1,2.29-.72A3.44,3.44,0,0,1,83.3,34a2.63,2.63,0,0,1,1,1.85H82.63a1.21,1.21,0,0,0-.49-.82,1.71,1.71,0,0,0-1.06-.3,1.67,1.67,0,0,0-1,.28.84.84,0,0,0-.35.69.75.75,0,0,0,.49.67,6.53,6.53,0,0,0,1.32.44,13.46,13.46,0,0,1,1.5.42,2.61,2.61,0,0,1,1.13.69,1.91,1.91,0,0,1,.42,1.34,2.24,2.24,0,0,1-.86,1.84A3.56,3.56,0,0,1,81.34,41.86Zm5.12-.2V29.9h1.73v5a3,3,0,0,1,1.13-1.1,3.3,3.3,0,0,1,1.62-.4,2.91,2.91,0,0,1,2.28.91A3.91,3.91,0,0,1,94.06,37v4.65H92.34V37.19c0-1.57-.62-2.35-1.88-2.35a2.19,2.19,0,0,0-1.63.68,2.8,2.8,0,0,0-.64,2v4.18Zm12.87.2a4.09,4.09,0,0,1-2.53-.75,2.77,2.77,0,0,1-1.14-2H97.4a1.8,1.8,0,0,0,.62,1,2,2,0,0,0,1.29.39,1.66,1.66,0,0,0,1.15-.33,1,1,0,0,0,.36-.75.81.81,0,0,0-.51-.83,6.51,6.51,0,0,0-1.37-.41,11.2,11.2,0,0,1-1.37-.39,3,3,0,0,1-1.13-.69A1.69,1.69,0,0,1,96,35.85a2.19,2.19,0,0,1,.82-1.76,3.32,3.32,0,0,1,2.28-.72,3.4,3.4,0,0,1,2.19.65,2.63,2.63,0,0,1,1,1.85h-1.67a1.17,1.17,0,0,0-.49-.82,1.69,1.69,0,0,0-1.06-.3,1.64,1.64,0,0,0-1,.28.83.83,0,0,0-.36.69.75.75,0,0,0,.49.67,6.75,6.75,0,0,0,1.32.44,12.88,12.88,0,0,1,1.5.42,2.61,2.61,0,0,1,1.13.69,1.91,1.91,0,0,1,.42,1.34,2.21,2.21,0,0,1-.86,1.84A3.56,3.56,0,0,1,99.33,41.86Zm8.22-.2a2.93,2.93,0,0,1-1.9-.57A2.6,2.6,0,0,1,105,39V35h-1.39V33.56H105l.21-2.06h1.52v2.06H109V35h-2.29v4A1.29,1.29,0,0,0,107,40a1.61,1.61,0,0,0,1,.24h.93v1.47Zm6,.2a3.7,3.7,0,0,1-1.7-.34,2.38,2.38,0,0,1-1-.9,2.54,2.54,0,0,1-.32-1.24,2.18,2.18,0,0,1,.91-1.86,4.28,4.28,0,0,1,2.62-.69h2.12v-.15a1.86,1.86,0,0,0-.52-1.42,1.89,1.89,0,0,0-1.33-.47,2.16,2.16,0,0,0-1.25.36,1.43,1.43,0,0,0-.64,1h-1.73a2.7,2.7,0,0,1,.59-1.51,3.3,3.3,0,0,1,1.3-1,4.4,4.4,0,0,1,1.75-.34,3.67,3.67,0,0,1,2.63.89,3.19,3.19,0,0,1,.93,2.42v5h-1.5l-.15-1.38a3.05,3.05,0,0,1-1,1.12A2.86,2.86,0,0,1,113.5,41.86Zm.34-1.4a2,2,0,0,0,1.18-.33,2.36,2.36,0,0,0,.75-.9,3.51,3.51,0,0,0,.34-1.22h-1.93a2.37,2.37,0,0,0-1.47.35,1.14,1.14,0,0,0-.42.9,1.06,1.06,0,0,0,.41.88A1.86,1.86,0,0,0,113.84,40.46Zm9.88,1.4a4.23,4.23,0,0,1-2.14-.54,3.9,3.9,0,0,1-1.47-1.49,4.55,4.55,0,0,1-.53-2.22,4.45,4.45,0,0,1,.53-2.2,3.86,3.86,0,0,1,1.47-1.5,4.23,4.23,0,0,1,2.14-.54,4,4,0,0,1,2.51.78,3.47,3.47,0,0,1,1.32,2.12h-1.81a1.72,1.72,0,0,0-.72-1,2.26,2.26,0,0,0-1.3-.38,2.29,2.29,0,0,0-2,1.26,3.08,3.08,0,0,0-.33,1.5,3.19,3.19,0,0,0,.33,1.52,2.29,2.29,0,0,0,2,1.26A2.26,2.26,0,0,0,125,40a1.71,1.71,0,0,0,.72-1.06h1.81a3.5,3.5,0,0,1-1.3,2.11A4,4,0,0,1,123.72,41.86Zm5.71-.2V29.9h1.73v7l3.11-3.35h2.07l-3.44,3.68,3.95,4.42h-2.19l-3.5-4.14v4.14Z"/><path class="cls-1" d="M15.15,47.1c2.26,1.11,2,1.08,12.37,1.08,8.55,0,9.37,0,10.26-.27a9.73,9.73,0,0,0,6.57-12.86,47.89,47.89,0,0,0-3.23-5.62,17.42,17.42,0,0,0,1.14,2.13c1.64,2.79,1.94,3.43,2.28,4.78a9.41,9.41,0,0,1-4,10.08c-2,1.31-2.46,1.43-6.54,1.49l-3.52,0,1.32-.45a13.35,13.35,0,0,0,5.55-3.4,14.91,14.91,0,0,0,3.88-6.78,16.15,16.15,0,0,0,.06-6.39c-.15-.66-.3-1.37-.31-1.58s-4.79-8.69-5.79-10.13a10.46,10.46,0,0,0-5.38-3.63,9.77,9.77,0,0,0-10,3.45,42.88,42.88,0,0,0-3.19,5.46A26.45,26.45,0,0,0,18.24,22a16.38,16.38,0,0,1,2.53-3.66,8.84,8.84,0,0,1,6.6-2.79,8.91,8.91,0,0,1,6.57,2.56c1,.93,1.54,1.77,3.78,5.64l.43.75-1-.91A13.78,13.78,0,0,0,29,19.92,13.85,13.85,0,0,0,17.85,23.6a5.77,5.77,0,0,1-1.23,1A23.71,23.71,0,0,0,14,29.22c.06.1,0,.13,0,.09s-3.2,5-3.55,6.06a10.33,10.33,0,0,0-.15,5.85A10.3,10.3,0,0,0,15.15,47.1Zm0-15.11A12.61,12.61,0,0,1,24.9,21.77a16.27,16.27,0,0,1,5.07,0,12.5,12.5,0,0,1,9.62,9.3,13.13,13.13,0,0,1,0,5.85A12.74,12.74,0,0,1,30.82,46a16.46,16.46,0,0,1-6.52.06,12.78,12.78,0,0,1-8.93-8.94A16.31,16.31,0,0,1,15.13,32Zm-4.94,5.34c.24-1.66.6-2.52,2.27-5.43a20.25,20.25,0,0,1,1.46-2.34,3.55,3.55,0,0,1-.18.86,14.85,14.85,0,0,0,0,7.26,18.34,18.34,0,0,0,2.43,4.87,15.39,15.39,0,0,0,5.38,4.38c.39.17,1.23.47,1.85.66l1.12.35H21.31c-3.67,0-4.35-.11-6.22-1.08A9.52,9.52,0,0,1,10.19,37.33Z"/><path class="cls-1" d="M12.73,49.64c4.43,4.44,8.39,8.33,8.79,8.66A11.16,11.16,0,0,0,25,60,11.1,11.1,0,0,0,30.22,60c2.2-.69,2.62-1,8-6.29C49.39,42.57,49.87,42.07,50.51,41A8.2,8.2,0,0,0,51.8,36a6.79,6.79,0,0,0-.42-3c-.79-2.31-.9-2.42-9.64-11.1-4.5-4.45-8.52-8.32-8.93-8.59a9.25,9.25,0,0,0-3.46-1.44,9.54,9.54,0,0,0-7.15,1.36c-.53.33-3.89,3.59-9.17,8.87-7.94,8-8.36,8.41-8.89,9.47a8.46,8.46,0,0,0-1,4.43,8.42,8.42,0,0,0,1,4.42C4.67,41.52,5.1,42,12.73,49.64ZM4.49,33.55c.64-2,.91-2.34,9.52-10.9,4.63-4.62,8.44-8.29,8.88-8.56a9.93,9.93,0,0,1,3.28-1.22,6.37,6.37,0,0,1,2.81.05,9.23,9.23,0,0,1,3.37,1.38c1,.72,16.53,16.24,17.14,17.18a8.65,8.65,0,0,1,0,9.14c-.74,1.12-16.14,16.46-17.36,17.27a8.42,8.42,0,0,1-9.88-.42c-.48-.36-4.42-4.21-8.76-8.57C5,40.39,5.06,40.45,4.41,38.26A9.76,9.76,0,0,1,4.49,33.55Z"/></svg>