<?xml version="1.0" encoding="utf-8"?>
<!-- Generator: Adobe Illustrator 25.0.0, SVG Export Plug-In . SVG Version: 6.00 Build 0)  -->
<svg version="1.1" id="Layer_1" xmlns="http://www.w3.org/2000/svg" xmlns:xlink="http://www.w3.org/1999/xlink" x="0px" y="0px"
	 viewBox="0 0 45 45" style="enable-background:new 0 0 45 45;" xml:space="preserve">
<style type="text/css">
	.st0{fill:#394E6B;}
	.st1{fill:#4FA4F7;}
	.st2{fill:#231F20;}
	.st3{fill:#FFFFFF;}
	.st4{fill-rule:evenodd;clip-rule:evenodd;fill:#FFFFFF;}
	.st5{fill:#4B41E5;}
	.st6{fill:url(#SVGID_1_);}
	.st7{fill:url(#SVGID_2_);}
	.st8{fill:url(#SVGID_3_);}
	.st9{fill:url(#SVGID_4_);}
	.st10{fill:url(#SVGID_5_);}
	.st11{fill:url(#SVGID_6_);}
	.st12{fill:url(#SVGID_7_);}
	.st13{fill:url(#SVGID_8_);}
</style>
<path class="st5" d="M13.22,26.52c0-0.4,0.33-0.73,0.73-0.73c0.4,0,0.73,0.33,0.73,0.73c0,0.4-0.33,0.73-0.73,0.73
	C13.55,27.25,13.22,26.92,13.22,26.52z M17.79,17.36l0-0.91l0-0.9c0-0.66,0-1.33,0-1.99c0-0.82,0.21-1.04,1.01-1.04
	c0.45,0,0.91,0,1.36,0c1.31-0.01,2.67-0.01,4.01,0.02c2,0.04,3.56,1.5,3.81,3.55c0.23,1.85-1.04,3.68-2.89,4.18
	c-0.37,0.1-0.78,0.15-1.19,0.16c-1.54,0.02-3.11,0.01-4.62,0.01l-0.46,0c-0.77,0-1.01-0.23-1.02-0.99
	C17.79,18.75,17.79,18.06,17.79,17.36z M19.32,18.91h0.12c0.51,0,1.02,0.01,1.52,0.01c0.51,0.01,1.01,0.01,1.5,0.01
	c0.67,0,1.32-0.01,1.99-0.05c1.15-0.07,2.11-1.19,2.09-2.45c-0.02-1.29-1.01-2.37-2.2-2.42c-1.13-0.04-2.29-0.03-3.4-0.02
	c-0.49,0-0.99,0.01-1.49,0.01h-0.12V18.91z M34.3,24.82c-0.56-1.49-1.5-2.79-2.8-3.88l-0.07-0.06l0.03-0.08
	c0.01-0.03,0.02-0.05,0.02-0.07c0.01-0.04,0.03-0.09,0.05-0.13c2.11-3.81,0.94-8.72-2.64-11.18c-0.2-0.14-0.33-0.46-0.34-0.7
	c-0.02-0.34-0.02-0.69-0.02-1.02c0-0.39,0-0.79-0.03-1.18C28.37,4.94,27,3.7,25.42,3.77c-1.62,0.06-2.88,1.32-2.93,2.92
	c-0.01,0.24-0.01,0.48,0,0.73c0,0.12,0,0.24,0,0.36V7.9h-1.32V7.77c0-0.11,0-0.23,0-0.34c0-0.24,0.01-0.46,0-0.68
	c-0.08-1.71-1.38-2.99-3.01-2.99c-0.01,0-0.02,0-0.03,0c-1.68,0.02-2.97,1.34-3,3.08c0,0.21,0,0.42,0,0.64l0,0.44H15
	c-0.23,0-0.45,0-0.66,0c-0.45,0-0.87-0.01-1.29,0.01c-1.43,0.06-2.67,1.13-2.87,2.51c-0.23,1.52,0.6,2.91,2.02,3.38
	c0.18,0.06,0.37,0.1,0.59,0.15c0.11,0.02,0.22,0.05,0.33,0.07l0.1,0.02l0,8.89c0,0.1,0,0.21,0,0.31c0.02,0.5,0.29,0.8,0.73,0.8
	c0,0,0,0,0.01,0c0.44,0,0.72-0.31,0.72-0.8c0.01-1.28,0.01-1.28,0.01-1.61l0-1.25l0-1.9c0-1.69,0-3.37,0-5.06
	c0-0.67-0.23-0.9-0.9-0.91c-0.07,0-0.13,0-0.2,0c-0.06,0-0.13,0-0.19,0c-1.09-0.02-1.78-0.64-1.77-1.59
	c0.01-0.92,0.7-1.53,1.75-1.54c0.37,0,0.74,0,1.11,0c0.42,0,0.84,0,1.26,0c0.58-0.01,0.84-0.27,0.85-0.86c0.01-0.28,0-0.55,0-0.83
	c0-0.29,0-0.58,0-0.87c0.02-0.91,0.67-1.57,1.53-1.58c0.01,0,0.01,0,0.02,0c0.88,0,1.51,0.63,1.54,1.55c0.01,0.3,0.01,0.6,0.01,0.9
	c0,0.29,0,0.57,0.01,0.86c0.02,0.57,0.27,0.83,0.82,0.84c0.83,0.02,1.7,0.02,2.6,0c0.56-0.01,0.81-0.26,0.83-0.82
	c0.01-0.3,0.01-0.59,0-0.89c0-0.27,0-0.54,0-0.81c0.02-0.95,0.66-1.62,1.55-1.62c0,0,0,0,0.01,0c0.9,0,1.52,0.66,1.54,1.62l0,0.23
	c0.01,0.67,0.03,1.36-0.01,2.04c-0.03,0.61,0.18,0.99,0.75,1.35c1.61,1,2.73,2.56,3.15,4.41c0.42,1.85,0.09,3.76-0.94,5.37
	c-0.55,0.85-0.52,0.99,0.31,1.64c2.53,1.96,3.51,4.5,2.93,7.55c-0.56,2.93-2.35,4.89-5.32,5.83c-0.76,0.24-0.87,0.38-0.87,1.17
	c0,0.19,0,0.38,0,0.56c0,0.39,0,0.8-0.01,1.19c-0.03,0.89-0.66,1.51-1.52,1.53c-0.89,0.02-1.54-0.64-1.57-1.54
	c-0.01-0.33-0.01-0.65-0.01-0.98c0-0.24,0-0.48,0-0.72c-0.01-0.63-0.25-0.89-0.87-0.89c-0.79-0.01-1.6-0.01-2.48,0
	c-0.63,0.01-0.88,0.25-0.89,0.88c-0.01,0.27-0.01,0.53,0,0.8c0,0.3,0,0.6-0.01,0.9c-0.03,0.92-0.66,1.56-1.54,1.56
	c-0.87,0-1.52-0.66-1.55-1.56c-0.01-0.33-0.01-0.66-0.01-0.99c0-0.18,0-0.36,0-0.54c0-0.84-0.21-1.04-1.06-1.04
	c-0.26,0-0.52,0-0.79,0c-0.5,0-1.02,0.01-1.54-0.01c-0.95-0.04-1.61-0.69-1.6-1.58c0.01-0.86,0.64-1.48,1.58-1.54
	c0.12-0.01,0.25-0.01,0.38-0.01c0.12,0,0.24,0,0.36-0.01c0.48-0.03,0.73-0.27,0.75-0.73c0.02-0.58,0.02-1.77,0-2.38
	c-0.02-0.4-0.31-0.69-0.72-0.69c0,0,0,0-0.01,0c-0.4,0-0.69,0.28-0.72,0.7c-0.01,0.21-0.01,0.75-0.01,1.14c0,0.14,0,0.27,0,0.35
	v0.11l-0.11,0.01c-1.04,0.11-1.81,0.5-2.34,1.2c-0.74,0.98-0.86,2.03-0.35,3.12c0.51,1.1,1.4,1.69,2.67,1.76
	c0.43,0.02,0.87,0.02,1.29,0.01c0.2,0,0.39-0.01,0.58-0.01h0.12l0.01,0.12c0.01,0.2,0.02,0.4,0.02,0.59
	c0.01,0.38,0.02,0.73,0.09,1.07c0.29,1.43,1.64,2.48,3.07,2.39c1.57-0.1,2.76-1.25,2.88-2.8c0.02-0.27,0.03-0.55,0.04-0.82
	c0-0.13,0.01-0.25,0.01-0.37l0.01-0.12h1.27l0,0.46c0,0.21,0,0.41,0,0.61c0.03,1.7,1.31,3.01,2.97,3.05c0.02,0,0.04,0,0.06,0
	c1.57,0,2.88-1.27,2.99-2.91c0.02-0.32,0.04-0.67,0.01-1c-0.05-0.54,0.21-0.75,0.61-0.9C33.72,34.64,36.04,29.44,34.3,24.82z
	 M17.8,24.46c0-0.66,0.26-0.92,0.91-0.92c0.57,0,1.14,0,1.71-0.01c1.81-0.01,3.68-0.02,5.52,0.02c2.25,0.04,4.16,1.82,4.34,4.04
	c0.19,2.33-1.33,4.35-3.61,4.8c-0.34,0.07-0.71,0.07-1.06,0.07l-0.04,0c-0.74,0.01-1.48,0.01-2.23,0l-0.88,0l-1.09,0
	c-0.86,0-1.72,0-2.58,0c-0.75,0-0.98-0.23-0.98-0.95C17.79,28.98,17.79,26.67,17.8,24.46z M19.3,30.99h0.12c0.64,0,1.28,0,1.91,0
	c0.64,0,1.27,0,1.89,0c0.98,0,1.95,0,2.93-0.02c0.71-0.01,1.37-0.35,1.9-0.98c0.82-0.97,1-2.07,0.5-3.19
	c-0.52-1.17-1.51-1.79-2.86-1.8c-1.58-0.01-3.19-0.01-4.75,0l-1.13,0c-0.1,0-0.18,0.02-0.28,0.03c-0.04,0.01-0.08,0.02-0.13,0.02
	l-0.11,0.02V30.99z"/>
</svg>
