<?xml version="1.0" encoding="utf-8"?>
<!-- Generator: Adobe Illustrator 25.0.0, SVG Export Plug-In . SVG Version: 6.00 Build 0)  -->
<svg version="1.1" id="Layer_1" xmlns="http://www.w3.org/2000/svg" xmlns:xlink="http://www.w3.org/1999/xlink" x="0px" y="0px"
	 viewBox="0 0 32 32" style="enable-background:new 0 0 32 32;" xml:space="preserve">
<style type="text/css">
	.st0{fill:#394E6B;}
	.st1{fill:#4FA4F7;}
	.st2{fill:#231F20;}
	.st3{fill:#FFFFFF;}
	.st4{fill-rule:evenodd;clip-rule:evenodd;fill:#FFFFFF;}
	.st5{fill:url(#SVGID_1_);}
	.st6{fill:url(#SVGID_2_);}
	.st7{fill:url(#SVGID_3_);}
	.st8{fill:url(#SVGID_4_);}
	.st9{fill:url(#SVGID_5_);}
	.st10{fill:url(#SVGID_6_);}
	.st11{fill:url(#SVGID_7_);}
	.st12{fill:url(#SVGID_8_);}
	.st13{fill:#234AB7;}
</style>
<g>
	<path class="st3" d="M16.66,0.26c0.03,0.01,0.07,0.02,0.12,0.02c1.4,0.06,2.81,0.33,4.19,0.78c1.64,0.54,3.17,1.35,4.54,2.4
		c1.87,1.43,3.36,3.19,4.43,5.25c0.97,1.86,1.55,3.84,1.72,5.9c0.01,0.16,0.03,0.31,0.04,0.47l0.02,0.21l0,1.41
		c-0.01,0.04-0.02,0.08-0.02,0.12c-0.01,0.15-0.03,0.3-0.04,0.45c-0.02,0.3-0.05,0.6-0.09,0.89c-0.16,1.15-0.45,2.27-0.84,3.32
		c-0.74,1.98-1.85,3.77-3.3,5.31c-1.21,1.28-2.61,2.34-4.15,3.15c-1.72,0.9-3.57,1.47-5.49,1.69c-0.24,0.03-0.48,0.05-0.72,0.07
		l-0.31,0.03h-1.42c-0.03-0.01-0.07-0.02-0.12-0.02c-1.25-0.05-2.52-0.26-3.75-0.64c-2.27-0.69-4.31-1.84-6.05-3.42
		c-1.65-1.5-2.94-3.29-3.83-5.32c-0.7-1.6-1.13-3.28-1.27-5c-0.01-0.15-0.03-0.3-0.04-0.45l-0.02-0.2l0-1.45
		c0.01-0.04,0.02-0.09,0.02-0.13c0.08-1.41,0.35-2.79,0.79-4.11c0.7-2.08,1.8-3.96,3.28-5.59c1.49-1.64,3.27-2.93,5.3-3.82
		c1.66-0.73,3.43-1.17,5.25-1.29C15,0.3,15.08,0.29,15.16,0.28l0.07-0.01H16.66 M16.7,0c-0.49,0-0.97,0-1.46,0
		c-0.11,0.01-0.23,0.03-0.34,0.04c-1.86,0.13-3.64,0.57-5.34,1.32C7.48,2.27,5.68,3.57,4.16,5.24C2.65,6.9,1.54,8.79,0.83,10.93
		c-0.45,1.36-0.72,2.75-0.8,4.18c0,0.04-0.02,0.09-0.02,0.13c0,0.49,0,0.97,0,1.46c0.02,0.22,0.04,0.45,0.06,0.67
		c0.15,1.77,0.58,3.46,1.29,5.08c0.91,2.08,2.22,3.88,3.9,5.4c1.79,1.62,3.84,2.78,6.15,3.48c1.24,0.38,2.52,0.6,3.82,0.65
		c0.03,0,0.05,0.02,0.08,0.02c0.49,0,0.97,0,1.46,0c0.36-0.04,0.71-0.07,1.07-0.11c1.97-0.23,3.83-0.8,5.58-1.72
		c1.59-0.83,3-1.9,4.22-3.2c1.48-1.57,2.6-3.37,3.36-5.39c0.41-1.09,0.69-2.22,0.85-3.37c0.06-0.45,0.09-0.9,0.13-1.35
		c0-0.04,0.02-0.09,0.02-0.13c0-0.48,0-0.95,0-1.43c-0.02-0.23-0.05-0.47-0.07-0.7c-0.18-2.12-0.77-4.12-1.75-6
		c-1.1-2.12-2.61-3.89-4.51-5.34c-1.4-1.07-2.94-1.88-4.62-2.44c-1.39-0.46-2.81-0.73-4.26-0.8C16.76,0.02,16.73,0.01,16.7,0L16.7,0
		z"/>
</g>
<g>
	<path class="st4" d="M10.25,9.77c-0.28-1.47,0.85-2.83,2.32-2.83c1.3,0,2.38,1.08,2.38,2.38v2.95c0.34,0,0.68-0.06,1.02-0.06
		c0.34,0,0.62,0,0.96,0.06V9.31c0-1.3,1.08-2.38,2.38-2.38c1.47,0,2.61,1.36,2.38,2.83l-0.62,3.46c2.21,0.96,3.91,2.66,3.91,4.76
		v1.3c0,1.76-1.13,3.23-2.78,4.19c-1.64,1.02-3.8,1.59-6.23,1.59s-4.59-0.57-6.23-1.59c-1.59-0.96-2.72-2.44-2.72-4.19v-1.3
		c0-2.1,1.64-3.8,3.85-4.76L10.25,9.77z M20.22,13.68l0.74-4.08c0.17-1.02-0.57-1.98-1.64-1.98c-0.91,0-1.64,0.74-1.64,1.64V13
		c-0.23-0.06-0.51-0.06-0.74-0.06c-0.34,0-0.62-0.06-0.96-0.06c-0.34,0-0.68,0-1.02,0.06c-0.23,0-0.51,0.06-0.74,0.06V9.31
		c0-0.91-0.74-1.64-1.64-1.64c-1.02,0-1.81,0.96-1.59,1.98l0.74,4.08c-2.38,0.91-3.97,2.49-3.97,4.31v1.3
		c0,2.78,3.68,5.04,8.22,5.04s8.22-2.27,8.22-5.04v-1.3C24.25,16.17,22.66,14.58,20.22,13.68z"/>
	<path class="st3" d="M13.7,17.64c0,0.74-0.4,1.36-0.91,1.36c-0.51,0-0.91-0.62-0.91-1.36c0-0.74,0.4-1.36,0.91-1.36
		C13.31,16.28,13.7,16.91,13.7,17.64z"/>
	<path class="st3" d="M20,17.64c0,0.74-0.4,1.36-0.91,1.36c-0.51,0-0.91-0.62-0.91-1.36c0-0.74,0.4-1.36,0.91-1.36
		C19.6,16.28,20,16.91,20,17.64z"/>
</g>
</svg>
